<?xml version="1.0" encoding="UTF-8" standalone="no"?>
<svg
   xmlns:dc="http://purl.org/dc/elements/1.1/"
   xmlns:cc="http://creativecommons.org/ns#"
   xmlns:rdf="http://www.w3.org/1999/02/22-rdf-syntax-ns#"
   xmlns:svg="http://www.w3.org/2000/svg"
   xmlns="http://www.w3.org/2000/svg"
   xmlns:sodipodi="http://sodipodi.sourceforge.net/DTD/sodipodi-0.dtd"
   xmlns:inkscape="http://www.inkscape.org/namespaces/inkscape"
   version="1.1"
   id="svg2"
   xml:space="preserve"
   sodipodi:docname="noneINRAElogo.svg"
   inkscape:version="0.92.4 (5da689c313, 2019-01-14)"
   viewBox="55.98 56 439.95 149.73"
   inkscape:export-filename="/home/louis/Documents/bouleau/INRAE/CDD_shiny/MAKAHO/resources/icons/noneINRAElogo.png"
   inkscape:export-xdpi="300"
   inkscape:export-ydpi="300"><metadata
     id="metadata8"><rdf:RDF><cc:Work
         rdf:about=""><dc:format>image/svg+xml</dc:format><dc:type
           rdf:resource="http://purl.org/dc/dcmitype/StillImage" /><dc:title /></cc:Work></rdf:RDF></metadata><defs
     id="defs6"><clipPath
       clipPathUnits="userSpaceOnUse"
       id="clipPath18"><path
         d="M 0,196.298 H 413.962 V 0 H 0 Z"
         id="path16" /></clipPath></defs><sodipodi:namedview
     pagecolor="#ffffff"
     bordercolor="#666666"
     borderopacity="1"
     objecttolerance="10"
     gridtolerance="10"
     guidetolerance="10"
     inkscape:pageopacity="0"
     inkscape:pageshadow="2"
     inkscape:window-width="1861"
     inkscape:window-height="1015"
     id="namedview4"
     showgrid="false"
     inkscape:zoom="2.1881326"
     inkscape:cx="142.98954"
     inkscape:cy="140.86163"
     inkscape:window-x="0"
     inkscape:window-y="24"
     inkscape:window-maximized="0"
     inkscape:current-layer="g868"
     inkscape:pagecheckerboard="true"
     showborder="true" /><g
     style="display:inline"
     transform="matrix(1.3333333,0,0,-1.3333333,0,261.73067)"
     inkscape:label="Copie de Logo-INRAE_RVB"
     inkscape:groupmode="layer"
     id="g872"><g
       id="g870"
       style="fill:#ffffff;fill-opacity:1;stroke:#feffff;stroke-width:7.5px;stroke-miterlimit:4;stroke-dasharray:none;stroke-opacity:1"
       data-darkreader-inline-fill=""
       data-darkreader-inline-stroke=""><g
         clip-path="url(#clipPath18)"
         id="g868"
         style="fill:#ffffff;fill-opacity:1;stroke:#feffff;stroke-width:7.5px;stroke-miterlimit:4;stroke-dasharray:none;stroke-opacity:1"
         data-darkreader-inline-fill=""
         data-darkreader-inline-stroke=""><g
           transform="translate(354.1374,98.1492)"
           id="g866"
           style="fill:#05050a;fill-opacity:1;stroke:#05050a;stroke-width:7.5px;stroke-miterlimit:4;stroke-dasharray:none;stroke-opacity:1;opacity:0.55"
           data-darkreader-inline-fill=""
           data-darkreader-inline-stroke=""><path
             id="path864"
             style="fill:#05050a;fill-opacity:1;fill-rule:nonzero;stroke:#05050a;stroke-width:7.5px;stroke-miterlimit:4;stroke-dasharray:none;stroke-opacity:1"
             d="m 0,0 c 0,5.144 -1.096,10.208 -3.097,14.916 -0.367,0.541 -0.731,0.225 -0.86,0.075 L -11.58,3.025 c -0.682,-1.19 -1.18,-2.02 -1.313,-5.002 -0.007,-0.207 -0.018,-0.375 -0.048,-0.524 -1.261,-12.897 -12.162,-23.009 -25.383,-23.009 -2.476,0 -4.935,0.36 -7.309,1.072 -4.038,1.21 -7.753,3.434 -10.743,6.431 -0.106,0.107 -0.211,0.215 -0.314,0.324 16.257,7.176 29.868,19.674 38.42,35.313 1.871,3.421 3.505,7.007 4.859,10.662 0.134,0.361 0.026,0.769 -0.27,1.017 -2.845,2.398 -6.006,4.362 -9.392,5.838 -4.832,2.108 -9.963,3.177 -15.251,3.177 -0.008,0 -0.015,-10e-4 -0.022,-10e-4 -0.007,0 -0.013,10e-4 -0.021,10e-4 -13.111,0 -24.696,-6.642 -31.595,-16.735 C -74.175,15.437 -76.648,8.004 -76.648,0 c 0,-3.626 0.511,-7.215 1.524,-10.682 -1.741,-0.366 -3.505,-0.664 -5.263,-0.892 L -98.743,37 c -0.133,0.355 -0.475,0.59 -0.854,0.59 h -11.399 c -0.38,0 -0.721,-0.235 -0.855,-0.591 l -27.617,-73.207 c -0.106,-0.281 -0.068,-0.596 0.103,-0.844 0.172,-0.248 0.451,-0.396 0.751,-0.396 h 13.208 c 0.386,0 0.733,0.247 0.863,0.615 l 4.433,12.731 h 29.616 l 0.138,-0.398 4.306,-12.333 c 0.129,-0.368 0.475,-0.615 0.863,-0.615 h 13.256 c 0.3,0 0.582,0.148 0.752,0.396 0.17,0.248 0.209,0.563 0.104,0.844 l -4.833,12.787 c 2.06,0.342 4.116,0.771 6.136,1.271 0.057,0.015 0.116,0.025 0.174,0.039 0.055,-0.079 0.112,-0.16 0.168,-0.238 2.512,-3.491 5.568,-6.518 9.082,-8.996 6.474,-4.566 14.075,-6.98 21.981,-6.98 v 0.002 c 0.014,0 0.028,-0.002 0.043,-0.002 C -17.192,-38.325 0,-21.132 0,0 m -38.354,25.508 c 3.195,-10e-4 6.309,-0.593 9.273,-1.764 -7.459,-13.766 -19.405,-24.586 -33.807,-30.618 -0.628,2.238 -0.946,4.545 -0.946,6.874 0,14.057 11.429,25.492 25.48,25.508 m -56.395,-37.425 0.098,-0.278 h -21.312 l 1.685,4.839 8.958,25.718 z m -66.3164,17.7232 c -2.227,-1.997 -5.399,-3.009 -9.433,-3.009 h -12.141 v 22.706 h 12.48 c 4.157,-0.064 7.303,-1.095 9.347,-3.062 2.029,-1.958 3.057,-4.798 3.057,-8.443 0,-3.513 -1.082,-6.192 -3.31,-8.192 m 4.797,-11.638 c 3.922,1.815 7.06,4.345 9.335,7.529 2.462,3.448 3.71,7.765 3.71,12.835 0,7.433 -2.426,13.208 -7.211,17.162 -4.734,3.912 -11.501,5.897 -20.114,5.897 h -25.708 c -0.506,0 -0.915,-0.41 -0.915,-0.916 v -73.207 c 0,-0.505 0.409,-0.915 0.915,-0.915 h 12.703 c 0.504,0 0.914,0.41 0.914,0.915 v 27.241 h 12.692 l 14.407,-27.664 c 0.157,-0.302 0.469,-0.492 0.809,-0.492 h 13.608 c 0.505,0 0.914,0.41 0.914,0.915 v 0.652 c 0,0.153 -0.038,0.301 -0.11,0.435 z m -53.1745,43.4226 h -12.604 c -0.505,0 -0.914,-0.41 -0.914,-0.916 v -48.96 l -31.001,49.447 c -0.167,0.267 -0.46,0.429 -0.773,0.429 h -12.704 c -0.504,0 -0.915,-0.41 -0.915,-0.916 v -73.207 c 0,-0.505 0.411,-0.916 0.915,-0.916 h 12.704 c 0.504,0 0.915,0.411 0.915,0.916 v 48.762 l 30.899,-49.25 c 0.167,-0.265 0.459,-0.428 0.773,-0.428 h 12.705 c 0.504,0 0.914,0.411 0.914,0.916 v 73.207 c 0,0.506 -0.41,0.916 -0.914,0.916 m -71.3022,0 h -12.653 c -0.505,0 -0.914,-0.41 -0.914,-0.916 v -73.207 c 0,-0.505 0.409,-0.916 0.914,-0.916 h 12.653 c 0.504,0 0.914,0.411 0.914,0.916 v 73.207 c 0,0.506 -0.41,0.916 -0.914,0.916"
             inkscape:connector-curvature="0" /></g></g></g></g></svg>